<svg width="127" height="40" viewBox="0 0 127 40" fill="none" xmlns="http://www.w3.org/2000/svg">
<path d="M123 40H3C0.8 40 -1 38.2 -1 36V4C-1 1.8 0.8 0 3 0H123C125.2 0 127 1.8 127 4V36C127 38.2 125.2 40 123 40Z" fill="white"/>
<path d="M26 19.8C26 16.7 28.6 15.2 28.7 15.1C27.2 13 25 12.7 24.2 12.6C22.3 12.4 20.4 13.7 19.5 13.7C18.5 13.7 17 12.6 15.4 12.6C13.3 12.6 11.4 13.8 10.3 15.7C8.10001 19.5 9.70001 25.1 11.8 28.2C12.9 29.7 14.1 31.4 15.7 31.3C17.3 31.2 17.9 30.3 19.8 30.3C21.7 30.3 22.2 31.3 23.9 31.3C25.6 31.3 26.7 29.8 27.7 28.3C28.9 26.6 29.4 24.9 29.4 24.8C29.3 24.7 26 23.5 26 19.8Z" fill="#2E050A"/>
<path d="M22.9 10.6001C23.7 9.5001 24.3 8.1001 24.2 6.6001C23 6.7001 21.4 7.4001 20.6 8.5001C19.8 9.4001 19.1 10.9001 19.3 12.3001C20.6 12.4001 22 11.6001 22.9 10.6001Z" fill="#2E050A"/>
<path d="M48.8 31.0999H46.6L45.4 27.2999H41.2L40.1 31.0999H38L42.2 18.2H44.8L48.8 31.0999ZM45 25.7L43.9 22.2999C43.8 21.9999 43.6 21.1 43.2 19.9C43.1 20.4 42.9 21.2999 42.6 22.2999L41.5 25.7H45Z" fill="#2E050A"/>
<path d="M59.5 26.4C59.5 28 59.1 29.2 58.2 30.2C57.4 31 56.5 31.4 55.3 31.4C54.1 31.4 53.2 30.9999 52.7 30.0999V35H50.6V25C50.6 24 50.6 23 50.5 21.9H52.3L52.4 23.4C53.1 22.3 54.1 21.7 55.5 21.7C56.6 21.7 57.5 22.1 58.2 23C59.1 23.8 59.5 24.9 59.5 26.4ZM57.4 26.4C57.4 25.5 57.2 24.7 56.8 24.2C56.4 23.6 55.8 23.2999 55 23.2999C54.5 23.2999 54 23.4999 53.6 23.7999C53.2 24.0999 52.9 24.5999 52.8 25.0999C52.7 25.3999 52.7 25.6 52.7 25.7V27.2999C52.7 27.9999 52.9 28.5 53.3 29C53.7 29.5 54.3 29.7 54.9 29.7C55.7 29.7 56.3 29.3999 56.7 28.7999C57.2 28.1999 57.4 27.4 57.4 26.4Z" fill="#2E050A"/>
<path d="M70.2 26.4C70.2 28 69.7999 29.2 68.8999 30.2C68.0999 31 67.1999 31.4 65.9999 31.4C64.7999 31.4 63.8999 30.9999 63.3999 30.0999V35H61.2999V25C61.2999 24 61.3 23 61.2 21.9H62.9999L63.1 23.4C63.8 22.3 64.8 21.7 66.2 21.7C67.3 21.7 68.1999 22.1 68.8999 23C69.7999 23.8 70.2 24.9 70.2 26.4ZM68.1 26.4C68.1 25.5 67.8999 24.7 67.4999 24.2C67.0999 23.6 66.5 23.2999 65.7 23.2999C65.2 23.2999 64.6999 23.4999 64.2999 23.7999C63.8999 24.0999 63.5999 24.5999 63.4999 25.0999C63.3999 25.3999 63.3999 25.6 63.3999 25.7V27.2999C63.3999 27.9999 63.5999 28.5 63.9999 29C64.3999 29.5 65 29.7 65.6 29.7C66.4 29.7 66.9999 29.3999 67.3999 28.7999C67.8999 28.1999 68.1 27.4 68.1 26.4Z" fill="#2E050A"/>
<path d="M82.2001 27.5001C82.2001 28.6001 81.8001 29.5001 81.1001 30.2001C80.3001 31.0001 79.1001 31.3001 77.6001 31.3001C76.2001 31.3001 75.1 31.0001 74.3 30.5001L74.8 28.8001C75.7 29.3001 76.7 29.6001 77.8 29.6001C78.6 29.6001 79.2001 29.4001 79.6001 29.1001C80.0001 28.7001 80.2001 28.3001 80.2001 27.7001C80.2001 27.2001 80.0001 26.7001 79.7001 26.4001C79.3001 26.0001 78.7 25.7001 77.9 25.4001C75.6 24.6001 74.5 23.3001 74.5 21.7001C74.5 20.6001 74.9001 19.8001 75.7001 19.1001C76.5001 18.4001 77.5 18.1001 78.9 18.1001C80.1 18.1001 81 18.3001 81.8 18.7001L81.3 20.4001C80.6 20.0001 79.8 19.8001 78.8 19.8001C78.1 19.8001 77.5001 20.0001 77.1001 20.3001C76.8001 20.6001 76.6001 21.0001 76.6001 21.5001C76.6001 22.0001 76.8001 22.4001 77.2001 22.8001C77.5001 23.1001 78.2001 23.4001 79.1001 23.8001C80.2001 24.2001 81.0001 24.8001 81.6001 25.4001C81.9001 25.9001 82.2001 26.6001 82.2001 27.5001Z" fill="#2E050A"/>
<path d="M89 23.4H86.7V27.9C86.7 29 87.1001 29.6 87.9001 29.6C88.3001 29.6 88.6 29.6 88.8 29.5L88.9001 31.1C88.5001 31.3 88 31.3 87.3 31.3C86.5 31.3 85.8001 31.1 85.4001 30.6C84.9001 30.1 84.7 29.3 84.7 28.1V23.4H83.3V21.8H84.7V20.1L86.7 19.5V21.8H89V23.4Z" fill="#2E050A"/>
<path d="M99.3 26.4001C99.3 27.8001 98.9 29.0001 98.1 29.9001C97.2 30.8001 96.1 31.3001 94.7 31.3001C93.3 31.3001 92.2 30.8001 91.4 29.9001C90.6 29.0001 90.2 27.9001 90.2 26.5001C90.2 25.1001 90.6 23.9001 91.5 23.0001C92.3 22.1001 93.5 21.6001 94.9 21.6001C96.3 21.6001 97.4 22.1001 98.2 23.0001C98.9 23.9001 99.3 25.0001 99.3 26.4001ZM97.1 26.5001C97.1 25.6001 96.9 24.9001 96.5 24.3001C96.1 23.6001 95.4 23.2001 94.6 23.2001C93.8 23.2001 93.1 23.6001 92.7 24.3001C92.3 24.9001 92.1 25.7001 92.1 26.5001C92.1 27.4001 92.3 28.1001 92.7 28.7001C93.1 29.4001 93.8 29.8001 94.6 29.8001C95.4 29.8001 96 29.4001 96.5 28.7001C96.9 28.1001 97.1 27.3001 97.1 26.5001Z" fill="#2E050A"/>
<path d="M106 23.6C105.8 23.6 105.6 23.5 105.3 23.5C104.6 23.5 104 23.8 103.6 24.3C103.3 24.8 103.1 25.4 103.1 26.1V31H101V24.6C101 23.5 101 22.6 100.9 21.7H102.7L102.8 23.5H102.9C103.1 22.9 103.5 22.4 103.9 22C104.4 21.7 104.9 21.5 105.4 21.5C105.6 21.5 105.8 21.5 105.9 21.5V23.6H106Z" fill="#2E050A"/>
<path d="M115.2 26.0001C115.2 26.4001 115.2 26.7001 115.1 26.9001H108.9C108.9 27.8001 109.2 28.5001 109.8 29.0001C110.3 29.4001 111 29.7001 111.8 29.7001C112.7 29.7001 113.6 29.6001 114.3 29.3001L114.6 30.7001C113.7 31.1001 112.7 31.3001 111.5 31.3001C110.1 31.3001 108.9 30.9001 108.1 30.0001C107.3 29.2001 106.9 28.0001 106.9 26.6001C106.9 25.2001 107.3 24.0001 108 23.1001C108.8 22.1001 109.9 21.6001 111.3 21.6001C112.6 21.6001 113.7 22.1001 114.3 23.1001C115 23.9001 115.2 24.9001 115.2 26.0001ZM113.3 25.5001C113.3 24.9001 113.2 24.4001 112.9 23.9001C112.5 23.3001 112 23.0001 111.3 23.0001C110.6 23.0001 110.1 23.3001 109.7 23.8001C109.4 24.2001 109.2 24.8001 109.1 25.4001H113.3V25.5001Z" fill="#2E050A"/>
<path d="M44.3999 10.3C44.3999 11.4 44.0999 12.3 43.3999 12.9C42.7999 13.4 41.9 13.7001 40.7 13.7001C40.1 13.7001 39.6 13.7 39.2 13.6V7.40005C39.7 7.30005 40.2999 7.30005 40.9999 7.30005C42.0999 7.30005 42.8999 7.50005 43.4999 8.00005C43.9999 8.50005 44.3999 9.30005 44.3999 10.3ZM43.2999 10.3C43.2999 9.60005 43.1 9.00005 42.7 8.60005C42.3 8.20005 41.6999 8.00005 40.9999 8.00005C40.6999 8.00005 40.4 8.00005 40.2 8.10005V12.8C40.3 12.8 40.5999 12.8 40.8999 12.8C41.6999 12.8 42.3 12.6001 42.7 12.2001C43.1 11.8001 43.2999 11.1 43.2999 10.3Z" fill="#2E050A"/>
<path d="M50 11.2999C50 11.9999 49.8 12.5999 49.4 12.9999C49 13.4999 48.4 13.6999 47.7 13.6999C47 13.6999 46.5 13.4999 46.1 12.9999C45.7 12.5999 45.5 11.9999 45.5 11.2999C45.5 10.5999 45.7 9.9999 46.1 9.5999C46.5 9.0999 47.1 8.8999 47.8 8.8999C48.5 8.8999 49 9.0999 49.4 9.5999C49.8 9.9999 50 10.5999 50 11.2999ZM49 11.2999C49 10.8999 48.9 10.4999 48.7 10.1999C48.5 9.7999 48.2 9.6999 47.8 9.6999C47.4 9.6999 47.1 9.8999 46.9 10.1999C46.7 10.4999 46.6 10.8999 46.6 11.2999C46.6 11.6999 46.7 12.0999 46.9 12.3999C47.1 12.7999 47.4 12.8999 47.8 12.8999C48.2 12.8999 48.5 12.6999 48.7 12.2999C48.9 12.0999 49 11.6999 49 11.2999Z" fill="#2E050A"/>
<path d="M57.7 9L56.3 13.6H55.4L54.8 11.6C54.6 11.1 54.5 10.6 54.4 10.1C54.3 10.6 54.2 11.1 54 11.6L53.4 13.6H52.5L51 9H52L52.5 11.2C52.6 11.7 52.7 12.2 52.8 12.7C52.9 12.3 53 11.8 53.2 11.2L53.8 9H54.6L55.2 11.1C55.4 11.6 55.5 12.1 55.6 12.6C55.7 12.1 55.8 11.6 55.9 11.1L56.5 9H57.7Z" fill="#2E050A"/>
<path d="M62.9 13.6H61.9V11C61.9 10.2 61.6 9.80005 61 9.80005C60.7 9.80005 60.5 9.90005 60.3 10.1C60.1 10.3 60 10.6 60 10.9V13.6H59V10.3C59 9.90005 59 9.50005 59 9.00005H59.9V9.70005C60 9.50005 60.2 9.30005 60.4 9.10005C60.7 8.90005 61 8.80005 61.3 8.80005C61.7 8.80005 62.1 8.90005 62.4 9.20005C62.8 9.50005 62.9 10.0001 62.9 10.7001V13.6Z" fill="#2E050A"/>
<path d="M65.7 13.5999H64.7V6.8999H65.7V13.5999Z" fill="#2E050A"/>
<path d="M71.7 11.2999C71.7 11.9999 71.5 12.5999 71.1 12.9999C70.7 13.4999 70.0999 13.6999 69.3999 13.6999C68.6999 13.6999 68.1999 13.4999 67.7999 12.9999C67.3999 12.5999 67.2 11.9999 67.2 11.2999C67.2 10.5999 67.3999 9.9999 67.7999 9.5999C68.1999 9.1999 68.7999 8.8999 69.4999 8.8999C70.1999 8.8999 70.7 9.0999 71.1 9.5999C71.5 9.9999 71.7 10.5999 71.7 11.2999ZM70.7 11.2999C70.7 10.8999 70.5999 10.4999 70.3999 10.1999C70.1999 9.7999 69.8999 9.6999 69.4999 9.6999C69.0999 9.6999 68.8 9.8999 68.6 10.1999C68.4 10.4999 68.2999 10.8999 68.2999 11.2999C68.2999 11.6999 68.4 12.0999 68.6 12.3999C68.8 12.7999 69.0999 12.8999 69.4999 12.8999C69.8999 12.8999 70.1999 12.6999 70.3999 12.2999C70.5999 12.0999 70.7 11.6999 70.7 11.2999Z" fill="#2E050A"/>
<path d="M76.6 13.5999H75.7L75.6 13.0999C75.3 13.4999 74.8 13.6999 74.3 13.6999C73.9 13.6999 73.5 13.5999 73.3 13.2999C73.1 12.9999 72.9 12.6999 72.9 12.3999C72.9 11.7999 73.1 11.3999 73.6 11.0999C74.1 10.7999 74.7 10.6999 75.6 10.6999V10.5999C75.6 9.9999 75.3 9.6999 74.7 9.6999C74.2 9.6999 73.9 9.7999 73.5 9.9999L73.3 9.2999C73.7 8.9999 74.2 8.8999 74.9 8.8999C76.1 8.8999 76.7 9.4999 76.7 10.7999V12.4999C76.6 12.9999 76.6 13.2999 76.6 13.5999ZM75.6 11.9999V11.2999C74.5 11.2999 73.9 11.5999 73.9 12.1999C73.9 12.3999 74 12.5999 74.1 12.6999C74.2 12.7999 74.4 12.8999 74.6 12.8999C74.8 12.8999 75 12.7999 75.2 12.6999C75.4 12.5999 75.5 12.3999 75.6 12.1999C75.6 12.1999 75.6 12.0999 75.6 11.9999Z" fill="#2E050A"/>
<path d="M82.4 13.6H81.5V12.9C81.2 13.5 80.7 13.7 80 13.7C79.4 13.7 79 13.5 78.6 13.1C78.2 12.7 78.1 12.1 78.1 11.4C78.1 10.7 78.3 10.1 78.7 9.6C79.1 9.2 79.6 9 80.1 9C80.7 9 81.1 9.2 81.4 9.6V7H82.4V12.4C82.4 12.8 82.4 13.2 82.4 13.6ZM81.4 11.7V10.9C81.4 10.8 81.4 10.7 81.4 10.6C81.3 10.4 81.2 10.2 81 10C80.8 9.8 80.6 9.8 80.3 9.8C79.9 9.8 79.6 10 79.4 10.3C79.2 10.6 79.1 11 79.1 11.5C79.1 12 79.2 12.3 79.4 12.6C79.6 12.9 79.9 13.1 80.3 13.1C80.6 13.1 80.9 13 81.1 12.7C81.3 12.3 81.4 12 81.4 11.7Z" fill="#2E050A"/>
<path d="M91.1 11.2999C91.1 11.9999 90.9 12.5999 90.5 12.9999C90.1 13.4999 89.5 13.6999 88.8 13.6999C88.1 13.6999 87.6 13.4999 87.2 12.9999C86.8 12.5999 86.6 11.9999 86.6 11.2999C86.6 10.5999 86.8 9.9999 87.2 9.5999C87.6 9.0999 88.2 8.8999 88.9 8.8999C89.6 8.8999 90.1 9.0999 90.5 9.5999C90.9 9.9999 91.1 10.5999 91.1 11.2999ZM90 11.2999C90 10.8999 89.9 10.4999 89.7 10.1999C89.5 9.7999 89.2 9.6999 88.8 9.6999C88.4 9.6999 88.1 9.8999 87.9 10.1999C87.7 10.4999 87.6 10.8999 87.6 11.2999C87.6 11.6999 87.7 12.0999 87.9 12.3999C88.1 12.7999 88.4 12.8999 88.8 12.8999C89.2 12.8999 89.5 12.6999 89.7 12.2999C89.9 12.0999 90 11.6999 90 11.2999Z" fill="#2E050A"/>
<path d="M96.6 13.6H95.6V11C95.6 10.2 95.3 9.80005 94.7 9.80005C94.4 9.80005 94.2 9.90005 94 10.1C93.8 10.3 93.7 10.6 93.7 10.9V13.6H92.7V10.3C92.7 9.90005 92.7 9.50005 92.7 9.00005H93.6V9.70005C93.7 9.50005 93.9 9.30005 94.1 9.10005C94.4 8.90005 94.7 8.80005 95 8.80005C95.4 8.80005 95.8 8.90005 96.1 9.20005C96.5 9.50005 96.6 10.0001 96.6 10.7001V13.6Z" fill="#2E050A"/>
<path d="M103.4 9.7999H102.3V11.9999C102.3 12.5999 102.5 12.7999 102.9 12.7999C103.1 12.7999 103.2 12.7999 103.4 12.7999V13.5999C103.2 13.6999 102.9 13.6999 102.6 13.6999C102.2 13.6999 101.9 13.5999 101.7 13.2999C101.5 13.0999 101.4 12.5999 101.4 12.0999V9.7999H100.7V8.9999H101.4V8.1999L102.4 7.8999V8.9999H103.5V9.7999H103.4Z" fill="#2E050A"/>
<path d="M108.8 13.5999H107.8V10.9999C107.8 10.1999 107.5 9.7999 106.9 9.7999C106.4 9.7999 106.1 9.9999 105.9 10.4999C105.9 10.5999 105.9 10.6999 105.9 10.8999V13.5999H104.9V6.8999H105.9V9.6999C106.2 9.1999 106.7 8.8999 107.3 8.8999C107.7 8.8999 108.1 8.9999 108.3 9.2999C108.6 9.5999 108.8 10.1999 108.8 10.7999V13.5999Z" fill="#2E050A"/>
<path d="M114.3 11.1C114.3 11.3 114.3 11.4 114.3 11.6H111.3C111.3 12.1 111.5 12.4 111.7 12.6C112 12.8 112.3 12.9 112.7 12.9C113.2 12.9 113.6 12.8 113.9 12.7L114.1 13.4C113.7 13.6 113.2 13.7 112.6 13.7C111.9 13.7 111.3 13.5 110.9 13.1C110.5 12.7 110.3 12.1 110.3 11.4C110.3 10.7 110.5 10.1 110.9 9.7C111.3 9.2 111.8 9 112.5 9C113.2 9 113.7 9.2 114 9.7C114.2 10 114.3 10.5 114.3 11.1ZM113.4 10.8C113.4 10.5 113.3 10.2 113.2 10C113 9.7 112.8 9.6 112.4 9.6C112.1 9.6 111.8 9.7 111.6 10C111.4 10.2 111.3 10.5 111.3 10.8H113.4Z" fill="#2E050A"/>
</svg>
