<svg width="127" height="40" viewBox="0 0 127 40" fill="none" xmlns="http://www.w3.org/2000/svg">
<path d="M123 40H3C0.8 40 -1 38.2 -1 36V4C-1 1.8 0.8 0 3 0H123C125.2 0 127 1.8 127 4V36C127 38.2 125.2 40 123 40Z" fill="white"/>
<path fill-rule="evenodd" clip-rule="evenodd" d="M8.80005 19.6V9.1C8.80005 8.5 9.30005 8 9.80005 8C10.3 8 10.5 8.1 10.8 8.3L30.1001 18.9C30.5001 19.1 30.7 19.4 30.7 19.7C30.7 20 30.5001 20.3 30.1001 20.5L10.8 31.1C10.6 31.2 10.3 31.4 9.80005 31.4C9.30005 31.4 8.80005 30.9 8.80005 30.3V19.6Z" fill="url(#paint0_linear)"/>
<path fill-rule="evenodd" clip-rule="evenodd" d="M21.3 19.7L9.59998 8C9.69998 8 9.69997 8 9.79997 8C10.3 8 10.5 8.1 10.8 8.3L25 16.1L21.3 19.7Z" fill="url(#paint1_linear)"/>
<path fill-rule="evenodd" clip-rule="evenodd" d="M24.9 23.1999L21.3 19.5999L25 15.8999L30.1001 18.6999C30.5001 18.8999 30.7 19.1999 30.7 19.4999C30.7 19.7999 30.5001 20.0999 30.1001 20.2999L24.9 23.1999Z" fill="url(#paint2_linear)"/>
<path fill-rule="evenodd" clip-rule="evenodd" d="M9.69995 31.2001L21.3 19.6001L24.8999 23.2001L10.8 30.9001C10.5 31.1001 10.3 31.2001 9.69995 31.2001C9.79995 31.2001 9.79995 31.2001 9.69995 31.2001Z" fill="url(#paint3_linear)"/>
<path fill-rule="evenodd" clip-rule="evenodd" d="M70.1 33.9C69.6 33.5 69.2 32.8 69 32.4L70.6 31.7C70.7 31.9 70.9 32.2 71.1 32.5C71.5 32.9 72.1 33.3 72.7 33.3C73.3 33.3 74 33 74.4 32.5C74.7 32 74.9 31.5 74.9 30.8V30.2C73.7 31.7 71.2 31.5 69.8 29.9C68.3 28.3 68.3 25.6 69.8 24C71.3 22.5 73.5 22.3 74.8 23.7V23H76.5V30.5C76.5 32.4 75.8 33.5 74.9 34.2C74.3 34.7 73.4 34.9 72.6 34.9C71.7 34.8 70.8 34.5 70.1 33.9ZM112 34.3L113.7 30.3L110.7 23.4H112.4L114.5 28.3L116.6 23.4H118.3L113.7 34.3H112ZM103.9 30.5C103.4 30 103.2 29.3 103.2 28.6C103.2 28 103.4 27.4 103.8 27C104.5 26.3 105.5 26 106.6 26C107.3 26 107.9 26.1 108.4 26.4C108.4 25.2 107.4 24.7 106.6 24.7C105.9 24.7 105.2 25.1 104.9 25.8L103.4 25.2C103.7 24.5 104.5 23.2 106.5 23.2C107.5 23.2 108.5 23.5 109.1 24.2C109.7 24.9 109.9 25.7 109.9 26.8V31H108.2V30.3C108 30.6 107.6 30.8 107.3 31C106.9 31.2 106.4 31.3 105.9 31.3C105.3 31.2 104.4 31 103.9 30.5ZM50.6 26.9C50.6 24.9 52.1 22.7 54.8 22.7C57.4 22.7 59 24.9 59 26.9C59 28.9 57.5 31.1 54.8 31.1C52.1 31.1 50.6 28.9 50.6 26.9ZM59.6 26.9C59.6 24.9 61.1 22.7 63.8 22.7C66.4 22.7 68 24.9 68 26.9C68 28.9 66.5 31.1 63.8 31.1C61.2 31.1 59.6 28.9 59.6 26.9ZM39.3 29.1C36.8 26.6 36.9 22.5 39.4 19.9C40.7 18.6 42.3 18 44 18C45.6 18 47.2 18.6 48.4 19.8L47.2 21.1C45.4 19.3 42.5 19.4 40.8 21.2C39 23.1 39 26 40.8 27.9C42.6 29.8 45.6 29.9 47.4 28C48 27.4 48.2 26.6 48.3 25.8H44.1V24H50C50.1 24.4 50.1 24.9 50.1 25.4C50.1 26.9 49.5 28.4 48.5 29.4C47.4 30.5 45.8 31.1 44.2 31.1C42.4 31 40.6 30.4 39.3 29.1ZM81.6 29.8C80.1 28.2 80.1 25.5 81.6 23.8C83.1 22.2 85.6 22.2 87 23.8C87.5 24.3 87.8 25 88.1 25.7L82.6 28C82.9 28.7 83.6 29.3 84.6 29.3C85.5 29.3 86.1 29 86.7 28.1L88.2 29.1C88 29.3 87.8 29.5 87.7 29.7C86 31.4 83.1 31.4 81.6 29.8ZM92 31V19.9H95.6C97.7 19.9 99.4 21.4 99.4 23.2C99.4 25 97.9 26.5 96 26.5H93.8V30.9H92V31ZM100.4 31V19.9H102.1V31H100.4ZM77.8 30.8V18.4H79.6V30.8H77.8ZM108.3 27.7C107.9 27.4 107.3 27.3 106.7 27.3C105.5 27.3 104.8 27.9 104.8 28.6C104.8 29.3 105.5 29.7 106.2 29.7C107.2 29.7 108.3 28.9 108.3 27.7ZM57.1 26.9C57.1 25.7 56.3 24.4 54.8 24.4C53.3 24.4 52.5 25.7 52.5 26.9C52.5 28.1 53.3 29.4 54.8 29.4C56.2 29.4 57.1 28.1 57.1 26.9ZM66.1 26.9C66.1 25.7 65.3 24.4 63.8 24.4C62.3 24.4 61.5 25.7 61.5 26.9C61.5 28.1 62.3 29.4 63.8 29.4C65.3 29.4 66.1 28.1 66.1 26.9ZM75 27.6C75 27.5 75 27.4 75.1 27.3C75.1 27.2 75.1 27 75.1 26.9C75.1 26.8 75.1 26.6 75.1 26.5V26.4C75.1 26.3 75 26.1 75 26C74.7 25 73.8 24.3 72.9 24.3C71.7 24.3 70.7 25.5 70.7 26.8C70.7 28.2 71.7 29.3 73 29.3C73.8 29.4 74.6 28.7 75 27.6ZM82.3 26.7L86 25.1C85.6 24.4 85 24.2 84.5 24.2C83 24.3 82.1 25.9 82.3 26.7ZM97.6 23.3C97.6 22.3 96.8 21.6 95.7 21.6H93.7V25.1H95.8C96.8 25.1 97.6 24.3 97.6 23.3Z" fill="#2E050A"/>
<path fill-rule="evenodd" clip-rule="evenodd" d="M113.3 32.2999H113.2V32.2H113.3H113.2V32.2999H113.3Z" fill="white"/>
<path fill-rule="evenodd" clip-rule="evenodd" d="M113.5 32.2999C113.5 32.1999 113.5 32.1999 113.5 32.2999C113.4 32.1999 113.4 32.1999 113.5 32.2999C113.4 32.2999 113.4 32.2999 113.5 32.2999ZM113.5 32.2C113.5 32.3 113.5 32.3 113.5 32.2C113.5 32.3 113.4 32.3 113.5 32.2C113.5 32.2 113.4 32.2 113.5 32.2Z" fill="white"/>
<path fill-rule="evenodd" clip-rule="evenodd" d="M113.6 32.2H113.5H113.6V32.2999V32.2Z" fill="white"/>
<path d="M37.9 10.1C37.9 8.29995 39.2 7.19995 40.8 7.19995C41.9 7.19995 42.6 7.69995 43.1 8.39995L42.3 8.89995C42 8.49995 41.5 8.19995 40.8 8.19995C39.7 8.19995 38.9 8.99995 38.9 10.2C38.9 11.4 39.7 12.2 40.8 12.2C41.4 12.2 41.9 11.9 42.1 11.7V10.7999H40.5V9.89995H43.2V12C42.7 12.6 41.9 13 40.9 13C39.2 13 37.9 11.8 37.9 10.1Z" fill="#2E050A"/>
<path d="M44.4 12.9V7.30005H48.2V8.20005H45.3V9.60005H48.1V10.5H45.3V12.1H48.2V13L44.4 12.9Z" fill="#2E050A"/>
<path d="M51 12.9V8.20005H49.3V7.30005H53.7V8.20005H52V12.9H51Z" fill="#2E050A"/>
<path d="M57.1 12.9V7.30005H58.1V12.9H57.1Z" fill="#2E050A"/>
<path d="M60.8 12.9V8.20005H59.1V7.30005H63.5V8.20005H61.8V12.9H60.8Z" fill="#2E050A"/>
<path d="M66.7 10.1C66.7 8.39995 67.9 7.19995 69.6 7.19995C71.3 7.19995 72.5 8.39995 72.5 10.1C72.5 11.8 71.3 13 69.6 13C67.9 13 66.7 11.7 66.7 10.1ZM71.3999 10.1C71.3999 8.89995 70.7 8.09995 69.5 8.09995C68.4 8.09995 67.6 8.99995 67.6 10.1C67.6 11.3 68.3 12.1 69.5 12.1C70.7 12.1 71.3999 11.2 71.3999 10.1Z" fill="#2E050A"/>
<path d="M77.5 12.9L74.6 8.90005V12.9H73.6V7.30005H74.6L77.5 11.2001V7.30005H78.5V12.9H77.5Z" fill="#2E050A"/>
<defs>
<linearGradient id="paint0_linear" x1="15.2674" y1="6.5736" x2="20.8656" y2="29.5645" gradientUnits="userSpaceOnUse">
<stop stop-color="#006884"/>
<stop offset="1" stop-color="#8AD1D0"/>
</linearGradient>
<linearGradient id="paint1_linear" x1="8.44068" y1="9.8438" x2="23.6967" y2="18.0913" gradientUnits="userSpaceOnUse">
<stop stop-color="#24BBB6"/>
<stop offset="1" stop-color="#DBE692"/>
</linearGradient>
<linearGradient id="paint2_linear" x1="25.9944" y1="23.62" x2="25.9944" y2="15.6716" gradientUnits="userSpaceOnUse">
<stop stop-color="#FCC072"/>
<stop offset="1" stop-color="#F58A5B"/>
</linearGradient>
<linearGradient id="paint3_linear" x1="11.3947" y1="33.2692" x2="23.4464" y2="21.004" gradientUnits="userSpaceOnUse">
<stop stop-color="#712B8F"/>
<stop offset="1" stop-color="#EA1D27"/>
</linearGradient>
</defs>
</svg>
