<svg width="20" height="20" viewBox="0 0 20 20" fill="none" xmlns="http://www.w3.org/2000/svg">
<path d="M14.4317 0.0641667C15.4467 0.110833 16.1483 0.26 16.7967 0.511667C17.4114 0.741509 17.9679 1.10399 18.4267 1.57333C18.896 2.03207 19.2585 2.5886 19.4883 3.20333C19.74 3.8525 19.8892 4.55333 19.9358 5.56833C19.9933 6.82667 20 7.27 20 10C20 12.73 19.9933 13.1733 19.9358 14.4317C19.8892 15.4467 19.74 16.1483 19.4883 16.7975C19.2584 17.4119 18.8959 17.9682 18.4267 18.4267C17.9679 18.896 17.4114 19.2585 16.7967 19.4883C16.1475 19.74 15.4467 19.8892 14.4317 19.9358C13.1733 19.9933 12.7308 20 10 20C7.26917 20 6.82583 19.9933 5.56833 19.9358C4.55333 19.8892 3.85167 19.74 3.2025 19.4883C2.58805 19.2584 2.03181 18.8959 1.57333 18.4267C1.10399 17.9679 0.741509 17.4114 0.511667 16.7967C0.26 16.1475 0.110833 15.4467 0.0641667 14.4317C0.00666667 13.175 0 12.7317 0 10C0 7.26917 0.00666667 6.825 0.0641667 5.56833C0.110833 4.55333 0.26 3.85167 0.511667 3.20333C0.741509 2.5886 1.10399 2.03207 1.57333 1.57333C2.03183 1.10409 2.58807 0.741617 3.2025 0.511667C3.8525 0.26 4.55333 0.110833 5.56833 0.0641667C6.825 0.00666667 7.26833 0 10 0C12.7308 0 13.175 0.00666667 14.4317 0.0641667ZM10 2.2225C7.3 2.2225 6.88667 2.22833 5.66917 2.28417C4.89667 2.31917 4.43333 2.4175 4.0075 2.58333C3.645 2.725 3.41417 2.875 3.14417 3.14417C2.87417 3.41417 2.72417 3.645 2.58333 4.0075C2.41833 4.4325 2.31917 4.89667 2.28417 5.66917C2.22833 6.88667 2.2225 7.3 2.2225 10C2.2225 12.7 2.22833 13.1133 2.28417 14.3308C2.31917 15.1033 2.4175 15.5667 2.58333 15.9917C2.725 16.355 2.875 16.5858 3.14417 16.8558C3.41417 17.1258 3.645 17.2758 4.0075 17.4167C4.4325 17.5817 4.89667 17.6808 5.66917 17.7158C6.8875 17.7717 7.30083 17.7775 10 17.7775C12.7 17.7775 13.1125 17.7717 14.3308 17.7158C15.1033 17.6808 15.5667 17.5825 15.9925 17.4167C16.355 17.275 16.5858 17.125 16.8558 16.8558C17.1258 16.5858 17.2758 16.355 17.4167 15.9925C17.5817 15.5675 17.6808 15.1033 17.7158 14.3308C17.7717 13.1125 17.7775 12.6992 17.7775 10C17.7775 7.30083 17.7717 6.8875 17.7158 5.66917C17.6808 4.89667 17.5825 4.43333 17.4167 4.00833C17.2988 3.6809 17.1069 3.38515 16.8558 3.14417C16.6149 2.89309 16.3191 2.70115 15.9917 2.58333C15.5667 2.41833 15.1025 2.31917 14.33 2.28417C13.1125 2.22833 12.6992 2.2225 9.99917 2.2225H10ZM10 15.185C8.62485 15.185 7.30603 14.6387 6.33365 13.6663C5.36127 12.694 4.815 11.3751 4.815 10C4.815 8.62485 5.36127 7.30603 6.33365 6.33365C7.30603 5.36127 8.62485 4.815 10 4.815C11.3751 4.815 12.694 5.36127 13.6663 6.33365C14.6387 7.30603 15.185 8.62485 15.185 10C15.185 11.3751 14.6387 12.694 13.6663 13.6663C12.694 14.6387 11.3751 15.185 10 15.185ZM10 12.9633C10.7859 12.9633 11.5397 12.6511 12.0954 12.0954C12.6511 11.5397 12.9633 10.7859 12.9633 10C12.9633 9.21408 12.6511 8.46034 12.0954 7.90461C11.5397 7.34887 10.7859 7.03667 10 7.03667C9.21408 7.03667 8.46034 7.34887 7.90461 7.90461C7.34887 8.46034 7.03667 9.21408 7.03667 10C7.03667 10.7859 7.34887 11.5397 7.90461 12.0954C8.46034 12.6511 9.21408 12.9633 10 12.9633ZM15.185 5.92583C14.8903 5.92583 14.6076 5.80876 14.3992 5.60036C14.1908 5.39196 14.0737 5.10931 14.0737 4.81458C14.0737 4.51986 14.1908 4.23721 14.3992 4.02881C14.6076 3.82041 14.8903 3.70333 15.185 3.70333C15.4797 3.70333 15.7624 3.82041 15.9708 4.02881C16.1792 4.23721 16.2962 4.51986 16.2962 4.81458C16.2962 5.10931 16.1792 5.39196 15.9708 5.60036C15.7624 5.80876 15.4797 5.92583 15.185 5.92583Z" fill="#2E050A"/>
</svg>
