<svg width="128" height="16" viewBox="0 0 128 16" fill="none" xmlns="http://www.w3.org/2000/svg">
<path d="M0.9 15C0.766667 15 0.646667 14.9533 0.54 14.86C0.446667 14.7533 0.4 14.6333 0.4 14.5V1.5C0.4 1.35333 0.446667 1.23333 0.54 1.14C0.646667 1.04667 0.766667 0.999999 0.9 0.999999H10.1C10.2467 0.999999 10.3667 1.04667 10.46 1.14C10.5533 1.23333 10.6 1.35333 10.6 1.5V3.52C10.6 3.65333 10.5533 3.77333 10.46 3.88C10.3667 3.97333 10.2467 4.02 10.1 4.02H3.92V6.96H9.7C9.84667 6.96 9.96667 7.01333 10.06 7.12C10.1533 7.21333 10.2 7.33333 10.2 7.48V9.48C10.2 9.61333 10.1533 9.73333 10.06 9.84C9.96667 9.93333 9.84667 9.98 9.7 9.98H3.92V14.5C3.92 14.6467 3.87333 14.7667 3.78 14.86C3.68667 14.9533 3.56667 15 3.42 15H0.9ZM17.268 15.2C15.6146 15.2 14.3413 14.8067 13.448 14.02C12.5546 13.2333 12.068 12.1267 11.988 10.7C11.9746 10.5267 11.968 10.2267 11.968 9.8C11.968 9.37333 11.9746 9.07333 11.988 8.9C12.068 7.48667 12.568 6.38667 13.488 5.6C14.408 4.8 15.668 4.4 17.268 4.4C18.8813 4.4 20.148 4.8 21.068 5.6C21.988 6.38667 22.488 7.48667 22.568 8.9C22.5813 9.07333 22.588 9.37333 22.588 9.8C22.588 10.2267 22.5813 10.5267 22.568 10.7C22.488 12.1267 22.0013 13.2333 21.108 14.02C20.2146 14.8067 18.9346 15.2 17.268 15.2ZM17.268 12.76C17.8546 12.76 18.288 12.5867 18.568 12.24C18.848 11.88 19.008 11.3333 19.048 10.6C19.0613 10.4667 19.068 10.2 19.068 9.8C19.068 9.4 19.0613 9.13333 19.048 9C19.008 8.28 18.8413 7.74 18.548 7.38C18.268 7.02 17.8413 6.84 17.268 6.84C16.1613 6.84 15.5746 7.56 15.508 9L15.488 9.8L15.508 10.6C15.5346 11.3333 15.688 11.88 15.968 12.24C16.2613 12.5867 16.6946 12.76 17.268 12.76ZM28.4545 15.2C27.1479 15.2 26.1279 14.7933 25.3945 13.98C24.6745 13.1533 24.2812 11.9933 24.2145 10.5L24.1945 9.8L24.2145 9.08C24.2679 7.64 24.6612 6.5 25.3945 5.66C26.1412 4.82 27.1612 4.4 28.4545 4.4C29.6679 4.4 30.6479 4.79333 31.3945 5.58V1.3C31.3945 1.15333 31.4412 1.03333 31.5345 0.94C31.6279 0.846666 31.7479 0.799999 31.8945 0.799999H34.3345C34.4812 0.799999 34.6012 0.846666 34.6945 0.94C34.7879 1.03333 34.8345 1.15333 34.8345 1.3V14.5C34.8345 14.6333 34.7879 14.7533 34.6945 14.86C34.6012 14.9533 34.4812 15 34.3345 15H32.0745C31.9412 15 31.8212 14.9533 31.7145 14.86C31.6212 14.7533 31.5745 14.6333 31.5745 14.5V13.86C30.8412 14.7533 29.8012 15.2 28.4545 15.2ZM29.5545 12.52C30.1545 12.52 30.6012 12.3333 30.8945 11.96C31.1879 11.5733 31.3545 11.08 31.3945 10.48C31.4079 10.3067 31.4145 10.0533 31.4145 9.72C31.4145 9.4 31.4079 9.15333 31.3945 8.98C31.3679 8.43333 31.2012 7.98 30.8945 7.62C30.5879 7.26 30.1412 7.08 29.5545 7.08C28.9279 7.08 28.4745 7.26667 28.1945 7.64C27.9279 8.01333 27.7745 8.52667 27.7345 9.18C27.7212 9.31333 27.7145 9.52 27.7145 9.8C27.7145 10.08 27.7212 10.2867 27.7345 10.42C27.7745 11.0733 27.9279 11.5867 28.1945 11.96C28.4745 12.3333 28.9279 12.52 29.5545 12.52ZM37.6717 3.1C37.5251 3.1 37.4051 3.05333 37.3117 2.96C37.2184 2.86667 37.1717 2.74667 37.1717 2.6V0.799999C37.1717 0.653333 37.2184 0.533333 37.3117 0.439999C37.4051 0.346666 37.5251 0.3 37.6717 0.3H40.0717C40.2184 0.3 40.3384 0.346666 40.4317 0.439999C40.5251 0.533333 40.5717 0.653333 40.5717 0.799999V2.6C40.5717 2.74667 40.5251 2.86667 40.4317 2.96C40.3384 3.05333 40.2184 3.1 40.0717 3.1H37.6717ZM37.6917 15C37.5451 15 37.4251 14.9533 37.3317 14.86C37.2384 14.7667 37.1917 14.6467 37.1917 14.5V5.1C37.1917 4.95333 37.2384 4.83333 37.3317 4.74C37.4251 4.64667 37.5451 4.6 37.6917 4.6H40.0517C40.1984 4.6 40.3184 4.64667 40.4117 4.74C40.5051 4.83333 40.5517 4.95333 40.5517 5.1V14.5C40.5517 14.6333 40.5051 14.7533 40.4117 14.86C40.3184 14.9533 40.1984 15 40.0517 15H37.6917ZM47.7144 15.2C46.1144 15.2 44.8544 14.7667 43.9344 13.9C43.0144 13.0333 42.5344 11.7733 42.4944 10.12V9.42C42.5477 7.84667 43.0344 6.62 43.9544 5.74C44.8877 4.84667 46.1344 4.4 47.6944 4.4C48.8277 4.4 49.781 4.63333 50.5544 5.1C51.341 5.55333 51.9277 6.18 52.3144 6.98C52.7144 7.78 52.9144 8.7 52.9144 9.74V10.22C52.9144 10.3533 52.8677 10.4733 52.7744 10.58C52.681 10.6733 52.561 10.72 52.4144 10.72H46.0144V10.86C46.041 11.4867 46.1944 11.9933 46.4744 12.38C46.7544 12.7667 47.161 12.96 47.6944 12.96C48.0277 12.96 48.301 12.8933 48.5144 12.76C48.7277 12.6133 48.921 12.44 49.0944 12.24C49.2144 12.0933 49.3077 12.0067 49.3744 11.98C49.4544 11.94 49.5744 11.92 49.7344 11.92H52.2144C52.3344 11.92 52.4344 11.96 52.5144 12.04C52.6077 12.1067 52.6544 12.2 52.6544 12.32C52.6544 12.6667 52.4544 13.0667 52.0544 13.52C51.6677 13.9733 51.101 14.3667 50.3544 14.7C49.6077 15.0333 48.7277 15.2 47.7144 15.2ZM49.3944 8.74V8.7C49.3944 8.04667 49.241 7.53333 48.9344 7.16C48.641 6.77333 48.2277 6.58 47.6944 6.58C47.1744 6.58 46.761 6.77333 46.4544 7.16C46.161 7.53333 46.0144 8.04667 46.0144 8.7V8.74H49.3944ZM59.5894 15.2C57.9894 15.2 56.7294 14.7667 55.8094 13.9C54.8894 13.0333 54.4094 11.7733 54.3694 10.12V9.42C54.4227 7.84667 54.9094 6.62 55.8294 5.74C56.7627 4.84667 58.0094 4.4 59.5694 4.4C60.7027 4.4 61.656 4.63333 62.4294 5.1C63.216 5.55333 63.8027 6.18 64.1894 6.98C64.5894 7.78 64.7894 8.7 64.7894 9.74V10.22C64.7894 10.3533 64.7427 10.4733 64.6494 10.58C64.556 10.6733 64.436 10.72 64.2894 10.72H57.8894V10.86C57.916 11.4867 58.0694 11.9933 58.3494 12.38C58.6294 12.7667 59.036 12.96 59.5694 12.96C59.9027 12.96 60.176 12.8933 60.3894 12.76C60.6027 12.6133 60.796 12.44 60.9694 12.24C61.0894 12.0933 61.1827 12.0067 61.2494 11.98C61.3294 11.94 61.4494 11.92 61.6094 11.92H64.0894C64.2094 11.92 64.3094 11.96 64.3894 12.04C64.4827 12.1067 64.5294 12.2 64.5294 12.32C64.5294 12.6667 64.3294 13.0667 63.9294 13.52C63.5427 13.9733 62.976 14.3667 62.2294 14.7C61.4827 15.0333 60.6027 15.2 59.5894 15.2ZM61.2694 8.74V8.7C61.2694 8.04667 61.116 7.53333 60.8094 7.16C60.516 6.77333 60.1027 6.58 59.5694 6.58C59.0494 6.58 58.636 6.77333 58.3294 7.16C58.036 7.53333 57.8894 8.04667 57.8894 8.7V8.74H61.2694ZM67.0644 15C66.931 15 66.811 14.9533 66.7044 14.86C66.611 14.7533 66.5644 14.6333 66.5644 14.5V11.96C66.5644 11.8133 66.611 11.6933 66.7044 11.6C66.811 11.5067 66.931 11.46 67.0644 11.46H69.6044C69.751 11.46 69.871 11.5067 69.9644 11.6C70.0577 11.6933 70.1044 11.8133 70.1044 11.96V14.5C70.1044 14.6333 70.0577 14.7533 69.9644 14.86C69.871 14.9533 69.751 15 69.6044 15H67.0644Z" fill="#2E050A"/>
<path d="M78.288 15.2C76.408 15.2 74.928 14.74 73.848 13.82C72.768 12.9 72.1946 11.5467 72.128 9.76C72.1146 9.37333 72.108 8.8 72.108 8.04C72.108 7.26667 72.1146 6.68667 72.128 6.3C72.1946 4.54 72.7746 3.18667 73.868 2.24C74.9746 1.28 76.448 0.799999 78.288 0.799999C80.128 0.799999 81.6013 1.28 82.708 2.24C83.8146 3.18667 84.3946 4.54 84.448 6.3C84.4746 7.07333 84.488 7.65333 84.488 8.04C84.488 8.41333 84.4746 8.98667 84.448 9.76C84.3813 11.5467 83.808 12.9 82.728 13.82C81.648 14.74 80.168 15.2 78.288 15.2ZM78.288 12.32C79.0213 12.32 79.6013 12.1 80.028 11.66C80.468 11.22 80.7013 10.5467 80.728 9.64C80.7546 8.86667 80.768 8.32 80.768 8C80.768 7.65333 80.7546 7.10667 80.728 6.36C80.7013 5.45333 80.468 4.78 80.028 4.34C79.588 3.9 79.008 3.68 78.288 3.68C77.568 3.68 76.988 3.9 76.548 4.34C76.1213 4.78 75.888 5.45333 75.848 6.36C75.8346 6.73333 75.828 7.28 75.828 8C75.828 8.70667 75.8346 9.25333 75.848 9.64C75.888 10.5467 76.1213 11.22 76.548 11.66C76.9746 12.1 77.5546 12.32 78.288 12.32ZM87.0863 15C86.9396 15 86.8196 14.9533 86.7262 14.86C86.6329 14.7667 86.5863 14.6467 86.5863 14.5V5.1C86.5863 4.95333 86.6329 4.83333 86.7262 4.74C86.8196 4.64667 86.9396 4.6 87.0863 4.6H89.3863C89.5329 4.6 89.6529 4.65333 89.7463 4.76C89.8529 4.85333 89.9063 4.96667 89.9063 5.1V5.9C90.6396 5.03333 91.6263 4.6 92.8663 4.6H93.7463C93.8929 4.6 94.0129 4.64667 94.1063 4.74C94.1996 4.83333 94.2463 4.95333 94.2463 5.1V7.16C94.2463 7.29333 94.1996 7.41333 94.1063 7.52C94.0129 7.61333 93.8929 7.66 93.7463 7.66H91.8063C91.2596 7.66 90.8329 7.81333 90.5263 8.12C90.2329 8.41333 90.0863 8.83333 90.0863 9.38V14.5C90.0863 14.6467 90.0329 14.7667 89.9263 14.86C89.8329 14.9533 89.7129 15 89.5663 15H87.0863ZM99.4506 15.2C98.144 15.2 97.124 14.7933 96.3906 13.98C95.6706 13.1533 95.2773 11.9933 95.2106 10.5L95.1906 9.8L95.2106 9.08C95.264 7.64 95.6573 6.5 96.3906 5.66C97.1373 4.82 98.1573 4.4 99.4506 4.4C100.664 4.4 101.644 4.79333 102.391 5.58V1.3C102.391 1.15333 102.437 1.03333 102.531 0.94C102.624 0.846666 102.744 0.799999 102.891 0.799999H105.331C105.477 0.799999 105.597 0.846666 105.691 0.94C105.784 1.03333 105.831 1.15333 105.831 1.3V14.5C105.831 14.6333 105.784 14.7533 105.691 14.86C105.597 14.9533 105.477 15 105.331 15H103.071C102.937 15 102.817 14.9533 102.711 14.86C102.617 14.7533 102.571 14.6333 102.571 14.5V13.86C101.837 14.7533 100.797 15.2 99.4506 15.2ZM100.551 12.52C101.151 12.52 101.597 12.3333 101.891 11.96C102.184 11.5733 102.351 11.08 102.391 10.48C102.404 10.3067 102.411 10.0533 102.411 9.72C102.411 9.4 102.404 9.15333 102.391 8.98C102.364 8.43333 102.197 7.98 101.891 7.62C101.584 7.26 101.137 7.08 100.551 7.08C99.924 7.08 99.4706 7.26667 99.1906 7.64C98.924 8.01333 98.7706 8.52667 98.7306 9.18C98.7173 9.31333 98.7106 9.52 98.7106 9.8C98.7106 10.08 98.7173 10.2867 98.7306 10.42C98.7706 11.0733 98.924 11.5867 99.1906 11.96C99.4706 12.3333 99.924 12.52 100.551 12.52ZM112.988 15.2C111.388 15.2 110.128 14.7667 109.208 13.9C108.288 13.0333 107.808 11.7733 107.768 10.12V9.42C107.821 7.84667 108.308 6.62 109.228 5.74C110.161 4.84667 111.408 4.4 112.968 4.4C114.101 4.4 115.054 4.63333 115.828 5.1C116.614 5.55333 117.201 6.18 117.588 6.98C117.988 7.78 118.188 8.7 118.188 9.74V10.22C118.188 10.3533 118.141 10.4733 118.048 10.58C117.954 10.6733 117.834 10.72 117.688 10.72H111.288V10.86C111.314 11.4867 111.468 11.9933 111.748 12.38C112.028 12.7667 112.434 12.96 112.968 12.96C113.301 12.96 113.574 12.8933 113.788 12.76C114.001 12.6133 114.194 12.44 114.368 12.24C114.488 12.0933 114.581 12.0067 114.648 11.98C114.728 11.94 114.848 11.92 115.008 11.92H117.488C117.608 11.92 117.708 11.96 117.788 12.04C117.881 12.1067 117.928 12.2 117.928 12.32C117.928 12.6667 117.728 13.0667 117.328 13.52C116.941 13.9733 116.374 14.3667 115.628 14.7C114.881 15.0333 114.001 15.2 112.988 15.2ZM114.668 8.74V8.7C114.668 8.04667 114.514 7.53333 114.208 7.16C113.914 6.77333 113.501 6.58 112.968 6.58C112.448 6.58 112.034 6.77333 111.728 7.16C111.434 7.53333 111.288 8.04667 111.288 8.7V8.74H114.668ZM120.563 15C120.416 15 120.296 14.9533 120.203 14.86C120.109 14.7667 120.063 14.6467 120.063 14.5V5.1C120.063 4.95333 120.109 4.83333 120.203 4.74C120.296 4.64667 120.416 4.6 120.563 4.6H122.863C123.009 4.6 123.129 4.65333 123.223 4.76C123.329 4.85333 123.383 4.96667 123.383 5.1V5.9C124.116 5.03333 125.103 4.6 126.343 4.6H127.223C127.369 4.6 127.489 4.64667 127.583 4.74C127.676 4.83333 127.723 4.95333 127.723 5.1V7.16C127.723 7.29333 127.676 7.41333 127.583 7.52C127.489 7.61333 127.369 7.66 127.223 7.66H125.283C124.736 7.66 124.309 7.81333 124.003 8.12C123.709 8.41333 123.563 8.83333 123.563 9.38V14.5C123.563 14.6467 123.509 14.7667 123.403 14.86C123.309 14.9533 123.189 15 123.043 15H120.563Z" fill="#ED5A6C"/>
</svg>
