<svg width="20" height="20" viewBox="0 0 20 20" fill="none" xmlns="http://www.w3.org/2000/svg">
<path d="M12.3572 19.4495C12.3572 19.5955 12.2895 19.7355 12.1689 19.8388C12.0484 19.942 11.8849 20 11.7144 20H8.28569C8.11519 20 7.95167 19.942 7.83111 19.8388C7.71054 19.7355 7.64281 19.5955 7.64281 19.4495C7.64281 19.3035 7.71054 19.1634 7.83111 19.0602C7.95167 18.9569 8.11519 18.8989 8.28569 18.8989H11.7144C11.8849 18.8989 12.0484 18.9569 12.1689 19.0602C12.2895 19.1634 12.3572 19.3035 12.3572 19.4495V19.4495ZM19.9651 13.3146L18.6405 18.4192C18.586 18.6324 18.4686 18.8301 18.2995 18.9935C18.1304 19.1568 17.9152 19.2802 17.6746 19.3521C17.5135 19.4009 17.344 19.4258 17.1732 19.426C16.8333 19.4257 16.5038 19.3261 16.239 19.1436L13.2033 17.0638H6.7969L3.76092 19.1436C3.562 19.2799 3.32583 19.3706 3.07468 19.4071C2.82352 19.4436 2.56565 19.4247 2.32538 19.3522C2.08511 19.2797 1.87035 19.156 1.70136 18.9927C1.53237 18.8295 1.4147 18.6321 1.35946 18.4191L0.0349267 13.3146C-0.0140982 13.1229 -0.0114813 12.9241 0.0425789 12.7333C0.0966392 12.5425 0.200723 12.3648 0.346936 12.2136L3.56388 8.9076C3.65297 7.7822 3.94239 6.67507 4.42212 5.62457C5.66126 2.89207 7.85935 1.10301 9.05928 0.279863H9.05917C9.32707 0.0977294 9.65933 -0.000960078 10.0014 7.04091e-06C10.3434 0.000974159 10.6749 0.10154 10.9414 0.285184C12.1258 1.10915 14.296 2.89959 15.523 5.632C15.9871 6.65957 16.2722 7.74004 16.369 8.83869L19.653 12.2136C19.7992 12.3648 19.9033 12.5425 19.9574 12.7333C20.0115 12.9241 20.0141 13.1229 19.9651 13.3146V13.3146ZM6.94615 15.9627H13.0501C18.2717 7.73496 12.1513 2.54551 10.1307 1.13971C10.093 1.11322 10.0458 1.09869 9.99705 1.09857C9.94828 1.09846 9.90096 1.11276 9.86309 1.13907C7.81446 2.5445 1.61147 7.73266 6.94615 15.9627ZM5.74398 16.3751C4.48801 14.4065 3.76735 12.4798 3.58285 10.6081L1.33471 12.9183C1.31381 12.9398 1.29893 12.9652 1.29121 12.9925C1.28348 13.0197 1.28312 13.0481 1.29014 13.0755L2.61478 18.1803C2.62268 18.2107 2.63949 18.2389 2.66363 18.2622C2.68776 18.2855 2.71843 18.3032 2.75274 18.3135C2.78705 18.3239 2.82387 18.3266 2.85974 18.3214C2.89561 18.3162 2.92934 18.3032 2.95776 18.2838L5.74398 16.3751ZM18.6653 12.9184L16.3663 10.5558C16.1987 12.4431 15.494 14.3865 14.2523 16.3725L17.0423 18.2838C17.0707 18.3032 17.1044 18.3161 17.1403 18.3213C17.1761 18.3265 17.2129 18.3238 17.2472 18.3135C17.2815 18.3031 17.3121 18.2855 17.3363 18.2622C17.3604 18.2389 17.3772 18.2108 17.3851 18.1804L18.7099 13.0757C18.7169 13.0483 18.7166 13.0199 18.7089 12.9926C18.7011 12.9654 18.6862 12.94 18.6653 12.9184V12.9184ZM10 8.62224C10.2119 8.62224 10.4191 8.56842 10.5953 8.4676C10.7715 8.36678 10.9088 8.22348 10.9899 8.05581C11.071 7.88815 11.0922 7.70366 11.0509 7.52567C11.0095 7.34768 10.9075 7.18419 10.7577 7.05586C10.6078 6.92754 10.4169 6.84015 10.2091 6.80475C10.0012 6.76934 9.78577 6.78751 9.58999 6.85696C9.39421 6.92641 9.22687 7.04402 9.10914 7.19491C8.9914 7.3458 8.92856 7.5232 8.92856 7.70468C8.92887 7.94795 9.04186 8.18118 9.24273 8.3532C9.4436 8.52521 9.71595 8.62197 10 8.62224V8.62224Z" fill="white"/>
</svg>
